Coordinates
version=1
nRows=20
nColumns=63
inDegrees=yes

Units are S.I. units (second, meters, Newtons, ...)
If the header above contains a line with 'inDegrees', this indicates whether rotational values are in degrees (yes) or radians (no).

endheader
time	pelvis_tilt	pelvis_list	pelvis_rotation	pelvis_tx	pelvis_ty	pelvis_tz	hip_flexion_r	hip_adduction_r	hip_rotation_r	knee_angle_r	knee_angle_r_beta	ankle_angle_r	subtalar_angle_r	mtp_angle_r	hip_flexion_l	hip_adduction_l	hip_rotation_l	knee_angle_l	knee_angle_l_beta	ankle_angle_l	subtalar_angle_l	mtp_angle_l	L5_S1_Flex_Ext	L5_S1_Lat_Bending	L5_S1_axial_rotation	L4_L5_Flex_Ext	L4_L5_Lat_Bending	L4_L5_axial_rotation	L3_L4_Flex_Ext	L3_L4_Lat_Bending	L3_L4_axial_rotation	L2_L3_Flex_Ext	L2_L3_Lat_Bending	L2_L3_axial_rotation	L1_L2_Flex_Ext	L1_L2_Lat_Bending	L1_L2_axial_rotation	L1_T12_Flex_Ext	L1_T12_Lat_Bending	L1_T12_axial_rotation	Abs_r3	Abs_r2	Abs_r1	Abs_t1	Abs_t2	neck_flexion	neck_bending	neck_rotation	arm_flex_r	arm_add_r	arm_rot_r	elbow_flex_r	pro_sup_r	wrist_flex_r	wrist_dev_r	arm_flex_l	arm_add_l	arm_rot_l	elbow_flex_l	pro_sup_l	wrist_flex_l	wrist_dev_l
1.648148	1.636482	-5.788179	85.419936	0.201757	0.624137	0.642360	9.984874	3.657735	-18.718632	5.771887	0.100738	20.678319	12.614032	0.000000	6.834649	-3.332772	-2.943390	2.430556	0.042421	21.613652	2.762281	0.000000	0.136242	0.890338	-0.130350	0.253014	1.184150	-0.138496	0.223832	2.164768	-0.138496	0.155711	2.164768	-0.114056	0.126514	1.815577	-0.105909	0.077849	1.379134	-0.097762	0.973161	10.071683	-0.724965	0.000000	0.000000	28.171228	-4.329072	10.771380	12.211631	-15.218857	42.025558	26.087767	64.286381	-5.664352	1.364227	16.394008	-18.540318	15.759742	145.778175	89.348524	2.243469	3.399926
1.666667	1.546743	-5.880825	85.117775	0.202505	0.623876	0.642834	10.155888	3.620858	-18.941920	5.895746	0.102900	20.814530	13.189663	0.000000	6.924623	-3.319333	-3.507613	2.447076	0.042710	21.794289	3.220182	0.000000	0.144636	0.876556	-0.077474	0.268603	1.165819	-0.082316	0.237622	2.131257	-0.082316	0.165304	2.131257	-0.067790	0.134309	1.787472	-0.062948	0.082645	1.357785	-0.058106	1.033119	9.915773	-0.430889	0.000000	0.000000	28.179770	-4.263381	10.638382	12.199193	-15.144034	41.909591	26.209851	63.531986	-5.550738	1.543238	16.691511	-18.530719	15.792915	145.830185	89.325312	0.875261	3.655229
1.685185	1.423725	-5.980574	84.789275	0.203329	0.623532	0.643358	10.321745	3.565161	-19.094131	6.008201	0.104863	20.895835	13.721532	0.000000	7.029172	-3.279274	-4.107012	2.477455	0.043240	21.958262	3.626519	0.000000	0.153422	0.858961	-0.023640	0.284920	1.142418	-0.025117	0.252057	2.088477	-0.025117	0.175346	2.088477	-0.020685	0.142468	1.751593	-0.019207	0.087665	1.330530	-0.017730	1.095879	9.716737	-0.131476	0.000000	0.000000	28.188439	-4.126112	10.586030	12.110441	-15.006502	41.370856	26.392103	63.438970	-5.497467	1.775528	16.986181	-18.437250	15.473383	145.950857	89.303889	0.592180	4.496654
1.703704	1.285876	-6.079138	84.461293	0.204175	0.623148	0.643929	10.466524	3.508447	-19.126074	6.089447	0.106281	20.891665	14.092005	0.000000	7.139977	-3.227420	-4.732739	2.510321	0.043813	22.120110	4.044585	0.000000	0.161340	0.839931	0.028248	0.299624	1.117108	0.030014	0.265065	2.042208	0.030014	0.184395	2.042208	0.024717	0.149820	1.712787	0.022952	0.092190	1.301053	0.021186	1.152434	9.501467	0.157108	0.000000	0.000000	28.196166	-3.936338	10.604570	11.979324	-14.831648	40.529281	26.603467	63.892970	-5.469339	2.049856	17.344392	-18.345062	15.109125	146.046232	89.286818	0.612947	5.310781
1.722222	1.137007	-6.176750	84.146465	0.205037	0.622748	0.644500	10.590029	3.452639	-19.038778	6.133669	0.107053	20.801504	14.283464	0.000000	7.253377	-3.164581	-5.339639	2.536582	0.044272	22.288631	4.459496	0.000000	0.168843	0.820665	0.072983	0.313559	1.091484	0.077545	0.277392	1.995365	0.077545	0.192971	1.995365	0.063860	0.156788	1.673500	0.059299	0.096477	1.271210	0.054737	1.206030	9.283526	0.405910	0.000000	0.000000	28.204579	-3.697358	10.760485	11.818717	-14.614390	39.426413	26.820427	64.904151	-5.469678	2.360310	17.739516	-18.255928	14.643168	146.120934	89.274939	0.982158	6.058234
1.740741	0.992255	-6.264310	83.873631	0.205840	0.622368	0.645067	10.689386	3.404125	-18.875359	6.147132	0.107288	20.634520	14.303951	0.000000	7.366401	-3.099835	-5.906268	2.562387	0.044722	22.464031	4.883483	0.000000	0.174604	0.802024	0.108888	0.324258	1.066692	0.115694	0.286858	1.950041	0.115694	0.199555	1.950041	0.095277	0.162138	1.635487	0.088472	0.099769	1.242335	0.081666	1.247182	9.072653	0.605603	0.000000	0.000000	28.213205	-3.441059	10.935357	11.683746	-14.413286	38.451286	27.011288	65.996891	-5.510720	2.640716	18.210759	-18.202398	14.255475	146.160910	89.269826	1.219030	6.661506
1.759259	0.855697	-6.340767	83.651562	0.206565	0.622043	0.645574	10.759132	3.362581	-18.691075	6.121163	0.106834	20.405581	14.235493	0.000000	7.477450	-3.038128	-6.579129	2.593396	0.045263	22.665180	5.530867	0.000000	0.178474	0.785388	0.136049	0.331444	1.044567	0.144552	0.293215	1.909593	0.144552	0.203978	1.909593	0.119042	0.165731	1.601564	0.110539	0.101980	1.216567	0.102036	1.274821	8.884470	0.756661	0.000000	0.000000	28.223080	-3.172467	11.185305	11.523814	-14.206539	37.329154	27.197509	67.488061	-5.588727	2.923645	18.712578	-18.131456	13.789933	146.166649	89.270024	1.736081	7.170812
1.777778	0.743791	-6.398831	83.504683	0.207152	0.621787	0.645970	10.795736	3.335342	-18.497517	6.070014	0.105942	20.123234	14.050074	0.000000	7.563669	-2.982525	-6.946691	2.601392	0.045403	22.796954	5.890394	0.000000	0.180904	0.771623	0.158049	0.335956	1.026259	0.167927	0.297206	1.876125	0.167927	0.206755	1.876125	0.138293	0.167987	1.573494	0.128415	0.103368	1.195244	0.118537	1.292176	8.728756	0.879021	0.000000	0.000000	28.233216	-2.959677	11.360035	11.373342	-14.054759	36.409314	27.356521	68.785032	-5.666303	3.144884	19.288209	-18.109183	13.592295	146.090038	89.273940	1.696780	7.300038
1.796296	0.648515	-6.451890	83.412487	0.207632	0.621592	0.646216	10.808794	3.320844	-18.182867	5.978826	0.104350	19.793866	13.669032	0.000000	7.640069	-2.929273	-7.136674	2.601706	0.045408	22.854756	6.080745	0.000000	0.183962	0.760627	0.174237	0.341635	1.011633	0.185126	0.302231	1.849388	0.185126	0.210250	1.849388	0.152457	0.170827	1.551070	0.141567	0.105116	1.178211	0.130677	1.314021	8.604361	0.969051	0.000000	0.000000	28.242486	-2.746736	11.579018	11.240930	-13.941610	35.666286	27.480904	69.844735	-5.746342	3.344469	19.840530	-18.081977	13.445594	146.000931	89.284153	1.610532	7.305236
1.814815	0.582970	-6.481046	83.424246	0.207933	0.621482	0.646268	10.777834	3.315612	-17.945547	5.859192	0.102262	19.466518	13.295615	0.000000	7.683980	-2.884062	-7.028151	2.583019	0.045082	22.817277	6.011225	0.000000	0.186170	0.753301	0.180661	0.345736	1.001890	0.191953	0.305859	1.831575	0.191953	0.212774	1.831575	0.158079	0.172878	1.536131	0.146787	0.106378	1.166863	0.135496	1.329794	8.521488	1.004785	0.000000	0.000000	28.251005	-2.588689	11.756862	11.071367	-13.865294	34.780099	27.606189	70.989682	-5.767205	3.545597	20.366793	-18.032845	13.366443	145.890885	89.298027	1.546297	7.216470
1.833333	0.542883	-6.482912	83.570617	0.208021	0.621469	0.646093	10.679783	3.329458	-17.519063	5.665263	0.098877	19.088102	12.516803	0.000000	7.690766	-2.839410	-6.632757	2.539675	0.044326	22.674441	5.723487	0.000000	0.188658	0.748786	0.168391	0.350357	0.995886	0.178915	0.309946	1.820599	0.178915	0.215617	1.820599	0.147342	0.175188	1.526925	0.136817	0.107799	1.159870	0.126293	1.347566	8.470420	0.936538	0.000000	0.000000	28.256485	-2.486915	11.880138	10.962854	-13.837996	34.268563	27.651275	71.848422	-5.844028	3.599232	20.840574	-17.949042	13.329566	145.756438	89.313702	1.560296	7.010777
1.851852	0.530029	-6.448065	83.759286	0.208032	0.621553	0.645755	10.535494	3.350987	-17.076485	5.470166	0.095472	18.753520	11.762455	0.000000	7.653281	-2.809210	-6.017342	2.503121	0.043688	22.471600	5.200222	0.000000	0.188317	0.747318	0.152204	0.349723	0.993933	0.161717	0.309386	1.817029	0.161717	0.215227	1.817029	0.133179	0.174871	1.523931	0.123666	0.107604	1.157595	0.114153	1.345128	8.453809	0.846515	0.000000	0.000000	28.258173	-2.458253	11.922386	10.921305	-13.859906	34.042173	27.631485	72.216896	-5.893251	3.555974	21.275252	-17.832957	13.248547	145.608446	89.332796	1.893784	6.847271
1.870370	0.539561	-6.376997	84.033547	0.207899	0.621736	0.645242	10.332876	3.382988	-16.508431	5.245282	0.091547	18.432591	10.773777	0.000000	7.571726	-2.784506	-5.249593	2.459905	0.042933	22.223455	4.580927	0.000000	0.186186	0.748712	0.115577	0.345765	0.995786	0.122800	0.305885	1.820417	0.122800	0.212792	1.820417	0.101130	0.172892	1.526773	0.093906	0.106387	1.159754	0.086682	1.329906	8.469576	0.642803	0.000000	0.000000	28.254744	-2.477120	11.949850	11.030725	-13.919501	34.408586	27.489867	72.336684	-6.041233	3.378869	21.627636	-17.705136	13.122350	145.457537	89.353520	2.391668	6.656777
1.888889	0.567772	-6.270084	84.358775	0.207659	0.622013	0.644590	10.087932	3.413284	-16.011116	5.025851	0.087718	18.184841	9.856114	0.000000	7.443752	-2.766974	-4.484428	2.409449	0.042053	21.973529	4.026033	0.000000	0.181668	0.752621	0.062643	0.337375	1.000986	0.066558	0.298462	1.829923	0.066558	0.207628	1.829923	0.054813	0.168697	1.534745	0.050898	0.103805	1.165810	0.046982	1.297635	8.513799	0.348403	0.000000	0.000000	28.245486	-2.543346	11.967032	11.317289	-14.013264	35.493226	27.194880	72.034630	-6.246567	2.985027	21.894666	-17.564990	12.917983	145.322602	89.373772	3.102341	6.544021
1.907407	0.611607	-6.128696	84.741651	0.207309	0.622381	0.643816	9.798140	3.440082	-15.595645	4.804136	0.083848	18.000688	8.999349	0.000000	7.278628	-2.755968	-3.790795	2.365172	0.041280	21.757082	3.630651	0.000000	0.174471	0.758673	-0.010199	0.324010	1.009035	-0.010837	0.286639	1.844637	-0.010837	0.199403	1.844637	-0.008924	0.162014	1.547086	-0.008287	0.099693	1.175184	-0.007649	1.246230	8.582259	-0.056724	0.000000	0.000000	28.231050	-2.652063	11.998363	11.797269	-14.134283	37.381661	26.752134	71.331840	-6.554281	2.418166	22.067604	-17.417110	12.606219	145.214015	89.392545	4.065833	6.536349
1.925926	0.666800	-5.964629	85.157565	0.206892	0.622819	0.642944	9.487095	3.457935	-15.393612	4.605749	0.080385	17.914391	8.420426	0.000000	7.088032	-2.752680	-3.246111	2.329461	0.040657	21.591416	3.452870	0.000000	0.165536	0.766039	-0.095340	0.307417	1.018831	-0.101299	0.271960	1.862546	-0.101299	0.189191	1.862546	-0.083422	0.153717	1.562106	-0.077464	0.094587	1.186594	-0.071505	1.182409	8.665582	-0.530252	0.000000	0.000000	28.212811	-2.793270	12.032860	12.457546	-14.275556	40.128095	26.162872	70.104568	-6.965801	1.637272	22.158452	-17.278964	12.254346	145.133067	89.409856	5.121010	6.630475
1.944444	0.724149	-5.787575	85.579457	0.206466	0.623303	0.641961	9.150579	3.476545	-15.120572	4.399241	0.076781	17.835963	7.750390	0.000000	6.874259	-2.751167	-2.822373	2.295171	0.040058	21.459193	3.402918	0.000000	0.156047	0.773073	-0.177749	0.289795	1.028188	-0.188859	0.256370	1.879650	-0.188859	0.178346	1.879650	-0.155531	0.144906	1.576451	-0.144421	0.089165	1.197491	-0.133312	1.114630	8.745160	-0.988588	0.000000	0.000000	28.192393	-2.976918	12.022595	13.153732	-14.426544	43.097977	25.533962	68.884468	-7.454658	0.774025	22.206960	-17.145670	11.963641	145.054822	89.425539	6.117555	6.785857
1.962963	0.775395	-5.610102	85.986198	0.206084	0.623798	0.640876	8.799068	3.494916	-14.690171	4.181085	0.072974	17.727208	6.887267	0.000000	6.645816	-2.745824	-2.446724	2.256065	0.039376	21.329403	3.336296	0.000000	0.147309	0.778321	-0.246170	0.273568	1.035166	-0.261556	0.242014	1.892409	-0.261556	0.168360	1.892409	-0.215399	0.136791	1.587151	-0.200013	0.084172	1.205619	-0.184627	1.052215	8.804518	-1.369123	0.000000	0.000000	28.171430	-3.196796	11.927827	13.778265	-14.581829	45.843652	24.966202	68.087795	-8.029705	-0.071374	22.249838	-17.030403	11.817798	144.959580	89.439180	6.919525	6.937094
1.981481	0.820436	-5.443024	86.359530	0.205769	0.624292	0.639730	8.460478	3.507103	-14.379313	3.988020	0.069604	17.668670	6.244584	0.000000	6.420946	-2.744376	-2.337038	2.226109	0.038853	21.247397	3.532519	0.000000	0.140127	0.781673	-0.295828	0.260231	1.039625	-0.314317	0.230215	1.900559	-0.314317	0.160152	1.900559	-0.258850	0.130122	1.593987	-0.240360	0.080069	1.210811	-0.221871	1.000916	8.842439	-1.645307	0.000000	0.000000	28.151770	-3.431927	11.755225	14.345486	-14.744413	48.511797	24.442171	67.346689	-8.655145	-0.988130	22.294868	-16.901281	11.798881	144.848900	89.450115	7.596290	7.115688
2.000000	0.849313	-5.287402	86.666094	0.205589	0.624760	0.638537	8.120435	3.520041	-13.846965	3.781836	0.066005	17.548916	5.376704	0.000000	6.187486	-2.734587	-2.200532	2.183341	0.038106	21.115997	3.534255	0.000000	0.134582	0.781679	-0.318860	0.249933	1.039634	-0.338789	0.221105	1.900575	-0.338789	0.153814	1.900575	-0.279003	0.124973	1.594001	-0.259074	0.076900	1.210821	-0.239145	0.961307	8.842514	-1.773405	0.000000	0.000000	28.133714	-3.691644	11.456802	14.781982	-14.902943	50.727992	24.027071	66.942783	-9.303908	-1.871047	22.360602	-16.768769	11.949425	144.700264	89.459387	8.044240	7.199478
